<?xml version="1.0" encoding="UTF-8"?>
<svg xmlns="http://www.w3.org/2000/svg" viewBox="148.23 266.39 545.38 62.94">
  <path fill="currentColor" d="M246.28,308.11c-6.65,12.64-24.11,20.78-53.95,20.78-32.15,0-44.05-10.47-44.05-24.5,0-15.84,15.3-38,59.82-38,37.1,0,45.29,12.38,44.52,21.81h-38.64c.77-4.5.15-7.44-6.96-7.44-12.06,0-18.39,16.88-18.39,26.58,0,4.24,2.32,7.01,7.57,7.01,6.96,0,9.27-2.77,11.44-6.23h38.64Z"></path>
  <path fill="currentColor" d="M289.87,317.46l-6.65,9.87h-39.26l47.61-59.38h54.25l3.25,59.38h-38.64l.77-9.87h-21.33ZM312.28,301.62c.46-4.59,1.24-14.54,2.16-21.38h-1.55c-4.02,7.53-8.35,14.37-12.67,21.38h12.06Z"></path>
  <path fill="currentColor" d="M404.56,305.69l-8.19,21.64h-37.56l22.57-59.38h50.08c25.81,0,36.63,6.58,36.63,15.06s-10.05,13.59-22.26,15.49c7.88,2.42,12.52,6.23,8.5,17.14-3.55,9.44-3.09,11.6-3.09,11.69h-36.79c-.15-.43,0-5.28,3.09-13.16,2.47-6.23,0-8.48-6.49-8.48h-6.49ZM409.51,292.44h6.96c9.12,0,11.9-3.55,11.9-6.58s-2.78-4.76-8.35-4.76h-6.18l-4.33,11.34Z"></path>
  <path fill="currentColor" d="M563.92,327.33h-24.27c-.15-.95,0-3.46.46-5.11-6.96,4.33-14.84,6.67-30.76,6.67-23.96,0-37.56-9.26-37.56-24.67,0-12.29,11.13-37.83,61.52-37.83,33.39,0,45.75,10.21,45.6,19.91h-38.18c0-2.68-.62-5.54-8.19-5.54-14.22,0-20.25,16.62-20.25,25.1,0,5.45,2.78,8.57,9.12,8.57,8.5,0,10.97-4.07,12.52-7.88l.31-1.21h-11.75l5.41-12.72h49c-10.2,26.66-11.9,31.16-12.98,34.71Z"></path>
  <path fill="currentColor" d="M693.61,291.32c0,12.55-9.74,37.57-62.29,37.57-31.38,0-45.44-9.35-45.44-24.5s14.53-38,61.52-38c28.29,0,46.22,8.92,46.22,24.93ZM625.75,306.99c0,5.02,1.85,7.53,8.35,7.53,15.15,0,19.94-23.11,19.94-26.66,0-5.28-2.01-7.01-8.35-7.01-14.07,0-19.94,20.6-19.94,26.14Z"></path>
</svg>